<svg width="64" height="64" viewBox="0 0 64 64" fill="none" xmlns="http://www.w3.org/2000/svg">
  <defs>
    <linearGradient id="gradient" x1="0%" y1="0%" x2="100%" y2="100%">
      <stop offset="0%" style="stop-color:#22d3ee;stop-opacity:1" />
      <stop offset="100%" style="stop-color:#3b82f6;stop-opacity:1" />
    </linearGradient>
  </defs>

  <!-- Background circle -->
  <circle cx="32" cy="32" r="32" fill="url(#gradient)"/>

  <!-- Geometric C shape with modern cut -->
  <path d="M 42 18 A 14 14 0 0 1 42 46 L 38 42 A 8 8 0 0 0 38 22 Z" fill="white" opacity="0.95"/>

  <!-- Inner geometric accent -->
  <circle cx="24" cy="32" r="3" fill="white" opacity="0.9"/>
  <circle cx="32" cy="24" r="2" fill="white" opacity="0.7"/>
  <circle cx="32" cy="40" r="2" fill="white" opacity="0.7"/>

  <!-- Minimalist sparkle effect -->
  <path d="M 50 16 L 51 18 L 53 17 L 52 19 L 54 20 L 52 21 L 53 23 L 51 22 L 50 24 L 49 22 L 47 23 L 48 21 L 46 20 L 48 19 L 47 17 L 49 18 Z" fill="white" opacity="0.8"/>
</svg>
